<?xml version="1.0" encoding="UTF-8" standalone="no"?><svg xmlns="http://www.w3.org/2000/svg" xmlns:xlink="http://www.w3.org/1999/xlink" fill="#ffffff" height="120.6" preserveAspectRatio="xMidYMid meet" version="1" viewBox="11.7 3.4 103.8 120.6" width="103.8" zoomAndPan="magnify"><g id="change1_1"><path d="M 19.6875 64.046875 C 16.261719 63.335938 17.761719 69.105469 18.59375 70.613281 C 18.832031 71.039062 19.101562 71.417969 19.34375 71.789062 C 19.273438 71.179688 19.175781 70.546875 19.019531 69.902344 C 18.484375 67.636719 18.445312 65.859375 19.6875 64.046875 Z M 28.105469 43.527344 C 27.71875 43.542969 27.324219 43.445312 26.984375 43.257812 C 26.863281 43.921875 26.871094 44.609375 27.027344 45.316406 C 27.066406 45.308594 27.09375 45.300781 27.132812 45.292969 C 27.621094 44.769531 27.941406 44.164062 28.105469 43.527344 Z M 28.203125 42.175781 C 28.210938 42.175781 28.210938 42.175781 28.210938 42.175781 C 28.171875 41.816406 28.089844 41.46875 27.949219 41.113281 C 27.757812 41.371094 27.585938 41.640625 27.445312 41.921875 C 27.621094 42.144531 27.890625 42.257812 28.203125 42.175781 Z M 31.285156 52.753906 C 33.222656 51.476562 32.207031 49.773438 30.640625 48.859375 C 28.402344 47.554688 25.566406 47.605469 23.238281 48.609375 C 23.210938 48.617188 23.179688 48.617188 23.148438 48.625 C 23.039062 48.707031 22.925781 48.792969 22.824219 48.882812 C 22.667969 49.269531 22.578125 49.753906 22.488281 50.019531 C 22.378906 50.347656 22.289062 50.90625 22.132812 51.304688 C 22.199219 51.363281 22.273438 51.425781 22.347656 51.484375 C 22.421875 51.476562 22.496094 51.492188 22.5625 51.515625 C 22.734375 51.5 22.917969 51.542969 23.082031 51.691406 C 23.730469 52.292969 23.582031 53.304688 22.734375 53.640625 C 22.28125 53.824219 21.820312 53.742188 21.417969 53.519531 C 21.484375 54.382812 22.027344 55.132812 22.859375 55.554688 C 23.222656 55.347656 23.632812 55.234375 24.085938 55.175781 C 24.84375 55.082031 25.601562 55.058594 26.011719 54.464844 C 24.265625 53.488281 24.570312 51.289062 26.019531 50.207031 C 26.210938 50.058594 26.398438 50.050781 26.550781 50.117188 C 26.960938 50.191406 27.332031 50.636719 27.085938 51.121094 C 27 51.3125 26.886719 51.550781 26.8125 51.804688 C 27.207031 53.050781 27.859375 53.542969 28.78125 53.261719 C 29.042969 53.207031 29.300781 53.15625 29.554688 53.101562 C 30.042969 53.007812 30.863281 53.03125 31.285156 52.753906 Z M 35.890625 53.496094 C 36.605469 49.464844 31.929688 46.417969 28.238281 46.675781 C 29.183594 46.824219 30.125 47.101562 31.027344 47.5625 C 32.84375 48.480469 34.703125 50.570312 33.515625 52.703125 C 32.851562 53.898438 31.523438 54.070312 30.296875 54.324219 C 29.421875 54.492188 28.34375 54.828125 27.347656 54.804688 C 27.082031 55.40625 26.632812 55.898438 26.003906 56.179688 C 25.164062 56.550781 23.9375 56.230469 23.246094 56.898438 C 22.882812 57.265625 22.390625 57.0625 22.199219 56.714844 C 20.476562 55.875 19.777344 54.011719 20.273438 52.242188 C 20.246094 52.175781 20.214844 52.109375 20.183594 52.046875 C 18.820312 54.210938 17.769531 56.675781 17.027344 58.289062 C 16.003906 60.53125 15.164062 62.933594 14.769531 65.378906 C 14.34375 68 14.34375 74.628906 18.78125 73.429688 C 18.363281 72.070312 17.003906 70.613281 16.582031 69.34375 C 16.210938 68.246094 15.941406 66.988281 16.152344 65.832031 C 16.484375 63.921875 18.058594 62.464844 19.957031 62.753906 C 19.925781 61.59375 20.164062 60.644531 20.386719 59.96875 C 20.640625 59.246094 20.890625 58.832031 21.0625 58.863281 C 21.234375 58.898438 21.285156 59.382812 21.261719 60.125 C 21.246094 60.859375 21.144531 61.886719 21.195312 62.890625 C 21.210938 62.992188 21.226562 63.089844 21.238281 63.179688 C 23.335938 64.777344 24.589844 66.972656 25.847656 69.203125 C 28.632812 67.351562 31.0625 64.613281 31.070312 61.070312 C 31.078125 60.222656 30.503906 58.726562 31.136719 57.875 C 32.527344 55.972656 35.378906 56.394531 35.890625 53.496094 Z M 43.746094 81.550781 C 45.683594 80.480469 41.738281 79.375 40.914062 79.300781 C 39.96875 79.21875 39.09375 79.226562 38.253906 79.234375 C 39.726562 80.257812 42.472656 82.257812 43.746094 81.550781 Z M 55.699219 26.371094 C 57.066406 22.886719 56.109375 21.273438 55.484375 18.109375 C 55.195312 16.609375 55.269531 10.152344 54.332031 8.449219 C 52.503906 11.089844 51.351562 18.230469 51.265625 18.984375 C 50.964844 21.660156 50.617188 24.277344 49.875 26.839844 C 51.65625 26.78125 53.328125 27.09375 55.039062 27.472656 C 55.289062 27.09375 55.558594 26.726562 55.699219 26.371094 Z M 57.355469 32.011719 C 57.164062 31.429688 57.164062 30.820312 57.339844 30.257812 C 53.894531 29.597656 50.929688 28.578125 47.257812 29.523438 C 40.601562 31.238281 34.117188 34.90625 29.085938 39.558594 C 29.644531 40.191406 29.875 41.140625 29.933594 41.996094 C 29.992188 42.917969 29.828125 43.78125 29.496094 44.589844 C 29.644531 44.523438 29.792969 44.464844 29.941406 44.390625 C 30.660156 44.023438 31.277344 43.5625 31.722656 43.066406 C 32.183594 42.5625 32.488281 42.011719 32.683594 41.527344 C 33.070312 40.546875 32.992188 39.828125 33.179688 39.789062 C 33.320312 39.738281 33.757812 40.472656 33.535156 41.757812 C 33.425781 42.390625 33.136719 43.117188 32.613281 43.792969 C 32.132812 44.441406 31.441406 44.996094 30.648438 45.421875 C 32.792969 45.882812 34.816406 47.144531 36.054688 48.867188 C 35.980469 47.984375 35.972656 47.167969 36.0625 46.4375 C 36.308594 44.210938 37.117188 43.023438 37.234375 43.09375 C 37.429688 43.167969 36.953125 44.417969 36.953125 46.492188 C 36.917969 48.5625 37.519531 51.402344 38.675781 54.402344 C 39.851562 57.40625 41.019531 60.191406 41.472656 62.332031 C 41.960938 64.472656 41.859375 65.851562 41.703125 65.851562 C 41.507812 65.851562 41.300781 64.550781 40.617188 62.578125 C 39.96875 60.570312 38.707031 57.933594 37.511719 54.847656 C 37.386719 54.53125 37.273438 54.210938 37.160156 53.890625 C 37.09375 54.203125 37.007812 54.515625 36.886719 54.828125 C 36.292969 56.402344 35.585938 56.953125 34.300781 57.820312 C 33.121094 58.617188 33.015625 57.21875 32.273438 59.671875 C 32.089844 60.273438 32.40625 61.667969 32.324219 62.285156 C 31.863281 65.816406 29.367188 68.488281 26.507812 70.371094 C 27.453125 71.996094 28.46875 73.578125 29.902344 74.878906 C 32.917969 77.605469 35.980469 78.128906 39.816406 78.015625 C 41.636719 77.964844 43.144531 78.296875 44.808594 79.085938 C 46.027344 79.65625 47.101562 80.792969 46.292969 81.921875 C 47.25 81.617188 48.164062 81.113281 49.003906 80.429688 C 49.191406 80.167969 49.265625 79.941406 49.214844 79.644531 C 49.160156 79.292969 48.914062 78.847656 48.664062 78.429688 C 48.136719 77.605469 47.40625 76.96875 46.679688 76.5 C 45.9375 76.039062 45.1875 75.757812 44.539062 75.601562 C 43.230469 75.289062 42.339844 75.421875 42.304688 75.230469 C 42.25 75.09375 43.121094 74.613281 44.671875 74.722656 C 45.4375 74.78125 46.34375 75.015625 47.257812 75.496094 C 48.121094 75.972656 48.996094 76.683594 49.644531 77.660156 C 48.894531 72.078125 47.75 66.789062 44.695312 62.003906 C 42.15625 58.015625 39.660156 53.261719 39.070312 48.488281 C 38.894531 47.933594 38.765625 47.398438 38.675781 46.914062 C 38.34375 44.996094 38.582031 43.800781 38.730469 43.808594 C 38.90625 43.808594 38.996094 44.746094 39.390625 46.1875 C 42.296875 38.621094 53.070312 38.691406 57.355469 32.011719 Z M 61.96875 28.652344 C 62.101562 24.640625 59.058594 21.4375 58.078125 17.632812 C 57.734375 16.335938 57.554688 14.976562 57.421875 13.628906 C 57.3125 12.484375 57.734375 9.492188 57.132812 8.578125 C 56.539062 7.679688 55.972656 7.390625 55.453125 7.515625 C 55.683594 7.8125 55.832031 8.191406 55.953125 8.734375 C 56.546875 11.363281 56.175781 14.363281 56.652344 17.0625 C 57.050781 19.296875 58.425781 21.90625 58.253906 24.203125 C 58.128906 25.828125 57.097656 26.585938 56.332031 27.761719 C 57.183594 27.945312 58.054688 28.132812 58.960938 28.273438 C 59.976562 28.429688 60.980469 28.535156 61.96875 28.652344 Z M 85.269531 24.210938 C 87.03125 21.304688 87.058594 17.855469 86.867188 14.550781 C 86.738281 14.671875 86.613281 14.789062 86.488281 14.90625 C 83.933594 17.335938 81.636719 20.035156 79.636719 22.945312 C 76.933594 26.882812 74.472656 30.890625 69.757812 32.03125 C 71.925781 33.238281 73.65625 35.070312 74.585938 37.410156 C 74.832031 37.136719 75.089844 36.878906 75.433594 36.617188 C 76.316406 35.925781 77.734375 35.835938 78.507812 35.21875 C 80 34.03125 79.628906 31.847656 80.566406 30.117188 C 81.777344 27.878906 83.953125 26.371094 85.269531 24.210938 Z M 88.886719 24.039062 C 89.355469 21.378906 88.863281 19.960938 88.152344 18.050781 C 87.90625 21.488281 86.917969 24.550781 84.3125 27.539062 C 82.667969 29.417969 81.339844 30.867188 80.921875 33.503906 C 80.835938 34.070312 81.027344 34.730469 80.753906 35.273438 C 80.351562 36.050781 80.292969 35.882812 79.621094 36.328125 C 77.726562 37.589844 76.738281 36.808594 75.0625 38.964844 C 75.230469 39.835938 75.1875 40.695312 75.359375 41.566406 C 76.25 46.074219 76.414062 44.304688 78.234375 46.617188 C 79.4375 48.164062 78.855469 50.941406 79.660156 52.628906 C 80.222656 49.945312 81.910156 48.015625 83.351562 45.539062 C 84.578125 43.4375 84.519531 41.683594 84.964844 39.464844 C 85.253906 38.023438 86.011719 37.152344 86.769531 35.910156 C 88.644531 32.859375 88.265625 27.640625 88.886719 24.039062 Z M 94.453125 81.894531 C 94.023438 79.933594 93.472656 78 92.566406 76.128906 C 91.242188 73.402344 89.652344 70.84375 88.589844 67.984375 C 87.355469 64.671875 86.585938 61.351562 83.984375 58.808594 C 82.371094 60.742188 81.175781 62.84375 80.855469 65.585938 C 80.648438 67.382812 80.691406 68.996094 80.105469 70.742188 C 78.976562 74.105469 76.710938 77.355469 73.878906 79.507812 C 67.957031 84.011719 57.847656 82.25 51.03125 80.3125 C 48.871094 82.816406 45.90625 83.878906 43.046875 83.585938 C 43.113281 83.617188 43.171875 83.648438 43.238281 83.667969 C 44.480469 84.136719 45.722656 84.5 46.828125 84.671875 C 47.941406 84.835938 48.9375 84.761719 49.703125 84.480469 C 51.285156 83.914062 51.761719 82.816406 51.925781 82.902344 C 52 82.925781 52 83.238281 51.746094 83.726562 C 51.492188 84.210938 50.945312 84.84375 50.050781 85.289062 C 49.167969 85.75 47.957031 85.941406 46.695312 85.816406 C 45.429688 85.699219 44.125 85.339844 42.785156 84.84375 C 40.117188 83.804688 38.03125 82.191406 36.769531 80.847656 C 36.121094 80.164062 35.667969 79.558594 35.402344 79.121094 C 34.546875 79.011719 33.671875 78.789062 32.726562 78.355469 C 30.394531 77.300781 28.425781 75.570312 26.878906 73.542969 C 24.957031 71.015625 23.960938 67.867188 21.855469 65.53125 C 21.523438 65.386719 21.144531 65.167969 20.78125 64.804688 C 20.527344 65.167969 20.339844 65.511719 20.222656 65.84375 C 20.40625 66.855469 20.644531 68.558594 21.253906 70.40625 C 21.492188 71.136719 21.761719 71.820312 22.027344 72.429688 C 22.289062 73.050781 22.546875 73.542969 22.832031 73.914062 C 23.363281 74.671875 23.980469 74.738281 23.996094 74.925781 C 24.003906 75 23.832031 75.117188 23.484375 75.109375 C 23.144531 75.109375 22.636719 74.925781 22.191406 74.53125 C 21.738281 74.152344 21.324219 73.566406 20.996094 72.941406 C 20.957031 72.882812 20.929688 72.808594 20.890625 72.738281 C 20.847656 73.058594 20.808594 73.378906 20.824219 73.65625 C 20.847656 74.167969 20.964844 74.65625 21.152344 75.125 C 22.816406 77.511719 27.390625 76.855469 29.664062 78.609375 C 31.433594 79.96875 32.273438 82.140625 33.90625 83.617188 C 36.5 85.964844 40.03125 86.449219 43.171875 87.746094 C 42.199219 86.664062 41.710938 85.925781 41.8125 85.832031 C 41.941406 85.699219 42.851562 86.46875 44.300781 87.671875 C 45.75 88.832031 47.816406 90.519531 50.511719 90.941406 C 52.296875 91.253906 54.003906 90.890625 55.171875 90.09375 L 55.65625 89.761719 L 55.945312 90.238281 C 56.710938 91.492188 57.625 92.378906 58.292969 92.949219 C 58.976562 93.519531 59.40625 93.824219 59.355469 93.929688 C 59.308594 94.027344 58.769531 93.921875 57.933594 93.46875 C 57.207031 93.066406 56.25 92.363281 55.371094 91.269531 C 54.027344 92.132812 52.15625 92.503906 50.3125 92.183594 C 49.390625 92.042969 48.542969 91.738281 47.773438 91.375 C 48.417969 93.945312 48.699219 96.464844 47.066406 98.773438 C 45.921875 100.394531 44.414062 101.582031 43.507812 103.410156 C 42.519531 105.402344 42.167969 107.570312 42.320312 109.738281 C 42.832031 108.046875 43.894531 106.78125 44.800781 106.121094 C 45.765625 105.410156 46.5 105.253906 46.570312 105.402344 C 46.65625 105.5625 46.101562 105.980469 45.402344 106.773438 C 44.695312 107.554688 43.855469 108.773438 43.460938 110.289062 C 43.0625 111.804688 43.1875 113.269531 43.417969 114.300781 C 43.640625 115.335938 43.921875 115.972656 43.761719 116.078125 C 43.632812 116.167969 43.0625 115.667969 42.578125 114.578125 C 42.3125 113.988281 42.101562 113.203125 42.035156 112.3125 C 41.941406 112.386719 41.828125 112.453125 41.710938 112.496094 C 39.792969 115.132812 38.476562 118 37.75 121.160156 C 53.449219 121.441406 69.15625 121.613281 84.851562 121.703125 C 84.699219 113.261719 90.976562 105.980469 88.539062 97.421875 C 88.265625 96.449219 88.105469 95.535156 88.027344 94.65625 C 87.914062 95.15625 87.773438 95.601562 87.617188 95.980469 C 87.1875 97.078125 86.726562 97.660156 86.578125 97.59375 C 86.242188 97.445312 87.246094 94.828125 87.097656 91.492188 C 87.007812 88.15625 85.828125 85.621094 86.152344 85.453125 C 86.292969 85.371094 86.792969 85.921875 87.304688 86.984375 C 87.757812 87.933594 88.179688 89.316406 88.316406 90.890625 C 89.148438 87.519531 91.488281 84.71875 94.453125 81.894531 Z M 96.898438 121.753906 C 102.320312 121.769531 107.742188 121.769531 113.160156 121.761719 C 112.582031 118.230469 109.765625 115.246094 107.402344 112.992188 C 105.996094 111.648438 105.679688 110.371094 105.375 108.476562 C 105.1875 107.355469 105.09375 106.226562 104.816406 105.125 C 104.386719 103.386719 103.859375 103.082031 102.640625 101.84375 C 100.847656 100 99.371094 97.457031 98.113281 95.222656 C 96.003906 91.464844 95.523438 87.421875 94.765625 83.429688 C 92.007812 86.046875 89.183594 89.085938 89.066406 93.066406 C 88.96875 96.21875 90.714844 99.070312 90.597656 102.28125 C 90.34375 109.058594 86.085938 114.882812 86.207031 121.707031 C 88.8125 121.722656 91.414062 121.738281 94.023438 121.753906 C 93.570312 121.507812 93.113281 121.21875 92.691406 120.832031 C 92.046875 120.269531 91.496094 119.457031 91.191406 118.558594 C 90.863281 117.660156 90.78125 116.65625 90.90625 115.667969 C 91.050781 114.671875 91.4375 113.738281 92 112.972656 C 91.925781 112.90625 91.851562 112.851562 91.792969 112.777344 C 91.464844 112.339844 91.421875 111.917969 91.367188 111.589844 C 91.28125 110.90625 91.292969 110.246094 91.382812 109.636719 C 91.570312 108.417969 92.015625 107.40625 92.511719 106.671875 C 93.53125 105.1875 94.554688 104.753906 94.609375 104.851562 C 94.71875 104.984375 93.902344 105.617188 93.175781 107.058594 C 92.808594 107.765625 92.5 108.691406 92.410156 109.753906 C 92.371094 110.28125 92.386719 110.847656 92.492188 111.417969 C 92.535156 111.710938 92.617188 111.945312 92.707031 112.042969 C 92.734375 112.082031 92.765625 112.089844 92.804688 112.09375 C 92.824219 112.117188 92.816406 112.058594 92.824219 112.148438 C 92.832031 112.199219 92.855469 112.230469 92.855469 112.230469 L 93.554688 113.03125 C 92.824219 113.722656 92.3125 114.726562 92.15625 115.839844 C 91.925781 117.460938 92.46875 119.035156 93.480469 119.992188 C 94.496094 120.980469 95.796875 121.457031 96.898438 121.753906 Z M 115.480469 122.476562 C 115.492188 122.742188 115.433594 122.964844 115.316406 123.136719 C 115.21875 123.589844 114.867188 123.988281 114.265625 123.988281 C 88.351562 124.050781 62.4375 123.839844 36.53125 123.375 C 35.792969 123.359375 35.4375 122.769531 35.453125 122.207031 C 35.371094 122.015625 35.34375 121.785156 35.386719 121.53125 C 36.105469 117.71875 37.652344 114.207031 39.976562 111.101562 C 40.042969 111.011719 40.125 110.9375 40.207031 110.867188 C 39.890625 108.285156 40.105469 105.757812 41.128906 103.296875 C 41.746094 101.828125 42.585938 100.527344 43.609375 99.316406 C 45.667969 96.878906 46.242188 94.835938 45.582031 91.878906 C 45.511719 91.835938 45.4375 91.78125 45.371094 91.714844 C 41.382812 87.769531 34.984375 88.542969 31.292969 84.011719 C 30.171875 82.636719 29.28125 80.847656 27.695312 79.945312 C 26.003906 78.980469 23.839844 79.203125 22.050781 78.496094 C 20.535156 77.902344 19.554688 77.027344 18.914062 75.703125 C 11.714844 77.398438 11.960938 66.683594 13.179688 62.28125 C 14.414062 57.867188 16.679688 53.699219 19.175781 49.886719 C 20.625 47.671875 22.28125 45.882812 24.792969 45.453125 C 24.375 43.023438 25.171875 40.539062 27.007812 38.832031 C 27.019531 38.824219 27.035156 38.816406 27.042969 38.800781 C 27.050781 38.5625 27.148438 38.3125 27.386719 38.09375 C 32.832031 33.015625 40.082031 28.808594 47.4375 27.183594 C 49.132812 22.019531 48.804688 16.503906 50.34375 11.304688 C 51.070312 8.835938 53.039062 3.449219 56.5625 4.046875 C 60.394531 4.691406 59.382812 11.109375 59.652344 13.628906 C 59.992188 16.898438 61.136719 19.574219 62.609375 22.464844 C 63.703125 24.605469 64.371094 26.519531 64.191406 28.949219 C 64.191406 28.949219 64.191406 28.949219 64.191406 28.957031 C 65.527344 29.1875 66.84375 29.53125 68.113281 30.152344 C 68.21875 30.101562 68.328125 30.0625 68.464844 30.050781 C 73.929688 29.386719 76.210938 23.742188 79.117188 19.855469 C 81.347656 16.878906 83.886719 14.136719 86.710938 11.714844 C 88.085938 10.523438 90.683594 7.582031 92.699219 8.132812 C 94.78125 8.710938 94.199219 11.4375 94.238281 13.140625 C 94.332031 17.953125 94.488281 22.769531 94.519531 27.589844 C 94.546875 32.054688 92.65625 36.90625 93.34375 41.171875 C 94.371094 47.5625 90.34375 53.222656 86.109375 57.804688 C 87.855469 59.722656 88.871094 61.988281 89.742188 64.464844 C 91.109375 68.386719 92.988281 71.839844 94.765625 75.570312 C 96.167969 78.507812 96.703125 81.433594 97.074219 84.644531 C 97.574219 88.929688 99 92.59375 101.332031 96.21875 C 102.195312 97.570312 103.070312 98.9375 104.222656 100.027344 C 104.742188 100.519531 105.253906 100.71875 105.699219 101.332031 C 106.902344 102.980469 107.136719 105.265625 107.433594 107.222656 C 107.996094 110.941406 111.191406 112.347656 112.816406 115.519531 C 113.925781 117.675781 115.292969 120.023438 115.480469 122.476562 Z M 91.964844 10.257812 C 91.964844 10.410156 90.9375 11.171875 90.886719 11.199219 C 90.121094 11.640625 89.371094 12.234375 88.65625 12.863281 C 88.65625 12.871094 88.65625 12.878906 88.65625 12.894531 C 87.921875 15.441406 90.144531 17.769531 90.484375 20.160156 C 90.664062 21.371094 90.484375 22.558594 90.292969 23.742188 C 89.933594 26 89.480469 28.117188 89.378906 30.40625 C 89.3125 31.773438 89.332031 33.117188 88.953125 34.449219 C 88.539062 35.867188 87.527344 36.726562 86.882812 37.992188 C 85.980469 39.765625 86.375 42.121094 85.664062 44.003906 C 84.394531 47.359375 81.464844 49.640625 80.902344 53.230469 C 81.175781 53.140625 81.457031 53.066406 81.703125 53.023438 C 82.140625 52.941406 82.355469 52.867188 82.492188 52.710938 C 82.648438 52.53125 82.863281 52.113281 83.054688 51.804688 C 83.449219 51.148438 83.820312 50.570312 84.148438 50.085938 C 84.800781 49.128906 85.277344 48.578125 85.433594 48.660156 C 85.582031 48.75 85.382812 49.449219 84.925781 50.519531 C 84.699219 51.046875 84.40625 51.667969 84.074219 52.351562 C 83.886719 52.703125 83.78125 53.03125 83.425781 53.503906 C 83.25 53.734375 82.953125 53.945312 82.683594 54.046875 C 82.417969 54.160156 82.164062 54.210938 81.941406 54.253906 C 80.378906 54.476562 79.4375 55.636719 79.148438 56.601562 C 78.828125 57.582031 78.960938 58.304688 78.78125 58.355469 C 78.648438 58.421875 78.136719 57.730469 78.277344 56.417969 C 78.351562 55.777344 78.636719 54.996094 79.234375 54.34375 C 79.242188 54.335938 79.25 54.335938 79.25 54.328125 C 78.582031 53.757812 78.261719 53.132812 78.039062 52.113281 C 77.550781 49.835938 78.628906 49.335938 76.421875 46.773438 C 75.953125 46.230469 75.269531 45.898438 74.867188 45.265625 C 73.695312 43.40625 74.242188 41.113281 73.722656 39.085938 C 73.679688 39.007812 73.65625 38.933594 73.648438 38.851562 C 73.128906 36.988281 72.058594 35.4375 70.640625 34.261719 C 70.113281 34.078125 68.84375 33.058594 67.042969 32.449219 C 64.90625 31.667969 62.980469 31.824219 62.914062 31.476562 C 62.890625 31.363281 63.105469 31.207031 63.507812 31.074219 C 61.925781 30.820312 60.296875 30.734375 58.664062 30.488281 C 58.484375 30.882812 58.484375 31.347656 58.6875 31.742188 C 58.804688 31.988281 58.769531 32.210938 58.65625 32.390625 C 58.640625 32.449219 58.625 32.515625 58.589844 32.574219 C 56.820312 35.414062 54.300781 37.257812 51.339844 38.734375 C 47.042969 40.867188 41.640625 42.457031 40.3125 47.679688 C 40.320312 47.703125 40.335938 47.71875 40.335938 47.746094 C 40.371094 48.207031 40.4375 48.660156 40.511719 49.113281 C 41.113281 50.308594 41.933594 51.566406 43.046875 52.703125 C 44.964844 54.648438 47.257812 55.761719 48.976562 56.3125 C 50.699219 56.878906 51.859375 56.980469 51.859375 57.175781 C 51.859375 57.324219 50.660156 57.546875 48.753906 57.167969 C 46.863281 56.8125 44.265625 55.726562 42.15625 53.578125 C 41.960938 53.378906 41.78125 53.171875 41.605469 52.96875 C 42.445312 55.140625 43.558594 57.226562 44.660156 59.246094 C 45.839844 61.425781 47.5625 63.296875 48.402344 65.621094 C 49.527344 68.726562 50.128906 72.175781 50.65625 75.421875 C 50.898438 76.914062 50.65625 78.261719 52.023438 79.210938 C 53.203125 80.035156 55.863281 80.050781 57.257812 80.238281 C 60.96875 80.71875 65.371094 81.1875 69.050781 80.339844 C 73.027344 79.433594 76.125 76.039062 77.90625 72.511719 C 79.691406 68.988281 78.894531 65.15625 80.441406 61.640625 C 81.433594 59.375 83.175781 57.554688 84.90625 55.824219 C 87.238281 53.199219 89.296875 50.28125 90.65625 47.035156 C 91.390625 45.265625 91.234375 43.644531 91.011719 42.03125 C 90.367188 43.4375 89.585938 44.597656 88.917969 45.382812 C 88.152344 46.277344 87.550781 46.707031 87.429688 46.601562 C 87.148438 46.355469 88.84375 44.121094 90.097656 40.976562 C 90.335938 40.40625 90.542969 39.84375 90.722656 39.3125 C 90.707031 38.699219 90.746094 38.074219 90.878906 37.425781 C 91.746094 33.3125 92.335938 29.722656 92.253906 25.480469 C 92.179688 21.609375 92.097656 17.730469 92.023438 13.859375 C 92.015625 13.585938 92.164062 10.554688 91.964844 10.257812" fill="inherit"/><path d="M 86.96875 74.332031 C 86.984375 76.21875 86.570312 77.898438 86.078125 79.011719 C 85.589844 80.140625 85.089844 80.726562 84.949219 80.652344 C 84.617188 80.488281 85.78125 77.816406 85.722656 74.34375 C 85.714844 70.867188 84.496094 68.214844 84.824219 68.050781 C 84.964844 67.976562 85.476562 68.550781 85.988281 69.664062 C 86.496094 70.773438 86.949219 72.441406 86.96875 74.332031" fill="inherit"/><path d="M 85.664062 100 C 86.308594 101.789062 86.59375 104.523438 85.847656 107.355469 C 85.730469 107.742188 85.640625 108.113281 85.476562 108.519531 C 85.3125 108.914062 85.089844 109.347656 84.667969 109.671875 C 84.570312 109.753906 84.453125 109.820312 84.332031 109.882812 C 84.191406 109.949219 84.042969 109.992188 83.902344 110.007812 C 83.613281 110.042969 83.335938 110.007812 83.09375 109.910156 C 83.085938 109.910156 83.078125 109.902344 83.070312 109.902344 C 82.421875 112.644531 81.480469 114.292969 81.300781 114.210938 C 81.265625 114.199219 81.25 114.144531 81.25 114.046875 C 81.25 113.460938 81.859375 111.390625 82.199219 108.515625 C 82.207031 108.507812 82.199219 108.507812 82.207031 108.5 L 83.324219 108.679688 C 83.324219 108.683594 83.324219 108.691406 83.324219 108.699219 C 83.316406 108.714844 83.332031 108.683594 83.34375 108.714844 C 83.359375 108.738281 83.425781 108.78125 83.5 108.796875 C 83.574219 108.828125 83.664062 108.828125 83.722656 108.820312 C 83.753906 108.8125 83.777344 108.796875 83.789062 108.789062 C 83.835938 108.765625 83.871094 108.746094 83.910156 108.714844 C 84.238281 108.46875 84.445312 107.765625 84.628906 107.042969 C 85.320312 104.441406 85.203125 101.960938 84.816406 100.246094 C 84.4375 98.519531 83.886719 97.519531 84.058594 97.414062 C 84.175781 97.324219 85.023438 98.195312 85.664062 100" fill="inherit"/><path d="M 83.0625 81.402344 C 83.195312 81.417969 83.160156 82.628906 82.246094 84.308594 C 81.398438 85.890625 79.554688 87.859375 76.851562 88.789062 C 76.84375 88.824219 76.835938 88.871094 76.820312 88.914062 C 76.390625 90.472656 75.386719 91.730469 74.242188 92.503906 C 73.085938 93.28125 71.8125 93.542969 70.804688 93.527344 C 69.777344 93.515625 68.984375 93.246094 68.484375 92.992188 C 67.988281 92.742188 67.765625 92.511719 67.800781 92.445312 C 67.882812 92.257812 68.984375 92.816406 70.765625 92.644531 C 71.644531 92.546875 72.667969 92.242188 73.574219 91.558594 C 74.472656 90.875 75.269531 89.828125 75.617188 88.582031 C 75.65625 88.453125 75.675781 88.320312 75.707031 88.195312 L 75.804688 87.816406 L 76.144531 87.710938 C 78.671875 86.96875 80.515625 85.242188 81.511719 83.839844 C 82.535156 82.429688 82.871094 81.34375 83.0625 81.402344" fill="inherit"/><path d="M 78.566406 109.851562 C 78.714844 109.820312 79.058594 110.652344 78.851562 112.050781 C 78.65625 113.417969 77.773438 115.34375 75.90625 116.5625 C 75.683594 116.714844 75.441406 116.84375 75.203125 116.96875 C 74.949219 117.074219 74.742188 117.191406 74.421875 117.273438 C 74.125 117.332031 73.730469 117.414062 73.277344 117.15625 C 73.0625 117.019531 72.90625 116.804688 72.832031 116.597656 C 72.757812 116.390625 72.75 116.21875 72.75 116.078125 C 72.75 115.945312 72.765625 115.839844 72.765625 115.757812 C 72.675781 115.855469 72.578125 115.957031 72.488281 116.054688 C 71.597656 117.007812 70.972656 117.546875 70.832031 117.4375 C 70.699219 117.332031 71.078125 116.597656 71.800781 115.503906 C 71.890625 115.363281 71.984375 115.222656 72.082031 115.074219 C 72.132812 115.007812 72.183594 114.910156 72.304688 114.800781 C 72.410156 114.6875 72.617188 114.546875 72.882812 114.53125 C 73.152344 114.515625 73.410156 114.664062 73.546875 114.8125 C 73.6875 114.964844 73.761719 115.117188 73.820312 115.273438 C 73.871094 115.414062 73.902344 115.640625 73.902344 115.75 C 73.902344 115.847656 73.902344 115.953125 73.910156 116.054688 C 73.910156 116.078125 73.910156 116.101562 73.917969 116.121094 L 73.929688 116.121094 C 73.96875 116.113281 74.035156 116.105469 74.109375 116.085938 C 74.242188 116.046875 74.460938 115.9375 74.652344 115.847656 C 74.839844 115.742188 75.039062 115.640625 75.222656 115.511719 C 76.738281 114.523438 77.609375 112.988281 77.988281 111.84375 C 78.375 110.683594 78.382812 109.867188 78.566406 109.851562" fill="inherit"/><path d="M 76.539062 65.027344 C 76.964844 66.074219 77.117188 67.167969 77.050781 68.140625 C 77 69.121094 76.738281 69.96875 76.433594 70.621094 C 75.8125 71.945312 75.0625 72.496094 74.949219 72.390625 C 74.800781 72.28125 75.261719 71.558594 75.601562 70.320312 C 75.960938 69.085938 76.109375 67.28125 75.378906 65.496094 C 75.070312 64.722656 74.644531 64.046875 74.167969 63.484375 L 73.738281 62.96875 L 74.257812 62.613281 C 75.304688 61.894531 75.847656 60.832031 76.09375 60.058594 C 76.339844 59.277344 76.351562 58.757812 76.503906 58.734375 C 76.621094 58.714844 76.875 59.242188 76.808594 60.199219 C 76.746094 61 76.382812 62.167969 75.433594 63.132812 C 75.871094 63.683594 76.257812 64.316406 76.539062 65.027344" fill="inherit"/><path d="M 59.464844 45.445312 C 59.660156 46.277344 59.832031 47.078125 59.710938 47.96875 C 59.621094 48.617188 59.296875 49.238281 58.804688 49.625 C 59.21875 50.25 59.324219 50.890625 59.300781 51.328125 C 59.273438 51.90625 59.078125 52.191406 58.992188 52.167969 C 58.878906 52.144531 58.863281 51.847656 58.730469 51.394531 C 58.605469 50.949219 58.316406 50.308594 57.71875 49.863281 L 57.097656 49.402344 L 57.859375 49.015625 C 58.195312 48.847656 58.492188 48.386719 58.53125 47.820312 C 58.582031 47.25 58.433594 46.492188 58.253906 45.757812 C 58.023438 44.835938 57.691406 44.003906 57.257812 43.328125 C 56.84375 42.648438 56.339844 42.128906 55.855469 41.757812 C 54.890625 41.007812 54.078125 40.867188 54.09375 40.671875 C 54.085938 40.527344 55.03125 40.332031 56.332031 41.015625 C 56.96875 41.347656 57.660156 41.898438 58.21875 42.679688 C 58.78125 43.445312 59.214844 44.410156 59.464844 45.445312" fill="inherit"/><path d="M 47.792969 52.796875 C 46.03125 51.8125 45.921875 49.425781 46.539062 47.324219 C 45.78125 47.953125 45.164062 48.859375 44.628906 49.828125 C 44.644531 49.96875 44.621094 50.109375 44.554688 50.234375 C 45.421875 51.453125 46.554688 52.316406 47.792969 52.796875 Z M 49.660156 47.003906 C 49.660156 46.988281 49.667969 46.980469 49.667969 46.96875 C 49.644531 46.921875 49.644531 46.871094 49.628906 46.824219 C 49.585938 46.824219 49.539062 46.808594 49.496094 46.816406 C 49.257812 46.839844 47.851562 47.589844 48.171875 47.878906 C 48.625 47.804688 49.085938 47.738281 49.546875 47.664062 C 49.585938 47.441406 49.621094 47.226562 49.660156 47.003906 Z M 52.007812 51.558594 C 53.617188 50.679688 52.734375 48.792969 51.71875 47.792969 C 51.84375 48.71875 51.5625 49.753906 50.878906 50.234375 C 49.597656 51.15625 48.335938 50.527344 47.429688 49.53125 C 47.414062 50.101562 47.503906 50.644531 47.78125 51.097656 C 48.484375 52.273438 50.9375 52.136719 52.007812 51.558594 Z M 54.59375 51.75 C 54.464844 51.417969 54.332031 51.082031 54.183594 50.757812 C 54.109375 51.128906 53.96875 51.492188 53.722656 51.820312 C 53.144531 52.597656 52.265625 52.984375 51.332031 53.164062 C 52.46875 52.976562 53.589844 52.523438 54.59375 51.75 Z M 55.824219 51.238281 C 56.210938 51.417969 56.441406 51.929688 56.035156 52.292969 C 52.015625 55.933594 46.128906 55.160156 43.179688 50.613281 C 43.171875 50.597656 43.171875 50.59375 43.171875 50.578125 C 43.136719 50.578125 43.097656 50.578125 43.070312 50.578125 C 42.207031 50.578125 42.207031 49.238281 43.070312 49.238281 C 43.1875 49.238281 43.304688 49.238281 43.425781 49.238281 C 44.769531 46.78125 46.6875 44.609375 49.769531 45.125 C 52.980469 45.660156 54.734375 48.4375 55.824219 51.238281" fill="inherit"/><path d="M 50.921875 113.484375 C 51.621094 116.128906 52.726562 117.808594 52.496094 117.972656 C 52.355469 118.097656 51.339844 117.15625 50.4375 115.335938 C 50.4375 115.335938 50.429688 115.34375 50.429688 115.351562 C 50.222656 115.632812 49.949219 115.882812 49.5625 116.023438 C 49.175781 116.183594 48.664062 116.128906 48.3125 115.929688 C 47.949219 115.734375 47.71875 115.476562 47.535156 115.246094 C 47.347656 115 47.191406 114.785156 47.050781 114.546875 C 46.769531 114.070312 46.546875 113.589844 46.382812 113.121094 C 46.0625 112.167969 45.960938 111.269531 45.980469 110.519531 C 46.03125 109.019531 46.515625 108.195312 46.65625 108.238281 C 46.84375 108.289062 46.695312 109.152344 46.863281 110.484375 C 46.953125 111.136719 47.132812 111.910156 47.46875 112.707031 C 47.628906 113.105469 47.847656 113.5 48.097656 113.894531 C 48.34375 114.273438 48.664062 114.71875 48.902344 114.820312 C 49.011719 114.875 49.050781 114.875 49.140625 114.851562 C 49.234375 114.820312 49.355469 114.734375 49.4375 114.621094 C 49.613281 114.398438 49.710938 113.996094 49.792969 113.558594 L 50.253906 110.972656 L 50.921875 113.484375" fill="inherit"/></g></svg>