<?xml version="1.0" encoding="UTF-8" standalone="no"?><svg xmlns="http://www.w3.org/2000/svg" xmlns:xlink="http://www.w3.org/1999/xlink" fill="#ffffff" height="502.5" preserveAspectRatio="xMidYMid meet" version="1" viewBox="-9.9 -2.5 489.9 502.5" width="489.9" zoomAndPan="magnify"><defs><clipPath id="a"><path d="M 364 76 L 474.160156 76 L 474.160156 228 L 364 228 Z M 364 76"/></clipPath></defs><g><g id="change1_1"><path d="M 452.378906 361.230469 C 446.640625 386.234375 431.167969 406.535156 408.800781 418.390625 C 386.746094 430.09375 360.753906 431.617188 337.503906 422.589844 L 328.007812 418.894531 L 324.3125 428.398438 C 315.285156 451.644531 296.613281 469.789062 273.085938 478.171875 C 249.253906 486.667969 223.824219 484.386719 201.5 471.738281 C 164.980469 451.046875 149.230469 405.101562 164.960938 364.628906 L 202.964844 266.78125 C 210.226562 248.082031 224.335938 233.328125 242.695312 225.242188 C 252.390625 220.972656 262.660156 218.828125 272.949219 218.828125 C 282.136719 218.828125 291.339844 220.539062 300.160156 223.964844 L 397.976562 261.953125 L 398.253906 262.0625 C 438.488281 277.691406 461.757812 320.324219 452.378906 361.230469 Z M 404.363281 246.328125 L 306.273438 208.226562 C 283.367188 199.335938 258.371094 199.890625 235.886719 209.792969 C 213.402344 219.699219 196.121094 237.769531 187.226562 260.671875 L 149.136719 358.75 C 130.484375 406.742188 149.417969 461.636719 193.179688 486.429688 C 209.058594 495.421875 226.726562 500 244.4375 500 C 256.023438 500 267.632812 498.039062 278.753906 494.074219 C 304.855469 484.769531 325.964844 465.425781 337.511719 440.480469 C 363.703125 448.792969 392.222656 446.273438 416.707031 433.304688 C 443.082031 419.324219 462.082031 394.429688 468.828125 365.003906 C 480.070312 315.988281 452.359375 264.96875 404.363281 246.328125" fill="inherit"/></g><g id="change1_2"><path d="M 80.984375 97.082031 C 86.375 93.148438 93.003906 91.167969 100.421875 91.167969 C 106.074219 91.167969 112.183594 92.316406 118.550781 94.628906 C 134.449219 100.398438 149.738281 112.53125 161.609375 128.792969 C 173.480469 145.054688 180.375 163.316406 181.03125 180.214844 C 181.636719 195.871094 176.738281 208.3125 167.246094 215.246094 C 146.914062 230.074219 110 215.554688 86.621094 183.535156 C 63.246094 151.511719 60.664062 111.917969 80.984375 97.082031 Z M 148.105469 237.890625 C 158.8125 237.890625 168.824219 234.992188 177.199219 228.878906 C 191.375 218.527344 198.726562 201.015625 197.898438 179.5625 C 197.117188 159.347656 189.070312 137.785156 175.242188 118.84375 C 161.414062 99.898438 143.328125 85.664062 124.3125 78.761719 C 104.132812 71.429688 85.207031 73.097656 71.035156 83.449219 C 42.84375 104.027344 43.71875 153.390625 72.988281 193.488281 C 93.5625 221.671875 122.773438 237.890625 148.105469 237.890625" fill="inherit"/></g><g id="change1_3"><path d="M 119.363281 341.570312 C 108.082031 358.242188 76.035156 357.09375 49.402344 339.054688 C 22.765625 321.019531 9.800781 291.699219 21.089844 275.027344 C 26.433594 267.132812 36.429688 263.238281 48.304688 263.238281 C 61.503906 263.238281 77.027344 268.054688 91.050781 277.546875 C 117.683594 295.582031 130.652344 324.902344 119.363281 341.570312 Z M 100.511719 263.570312 C 65.117188 239.605469 24.09375 240.480469 7.109375 265.5625 C -9.871094 290.644531 4.546875 329.066406 39.9375 353.03125 C 57.117188 364.660156 75.621094 370.4375 92.0625 370.4375 C 109.492188 370.4375 124.601562 363.945312 133.34375 351.035156 C 150.324219 325.957031 135.902344 287.535156 100.511719 263.570312" fill="inherit"/></g><g id="change1_4"><path d="M 229.25 43.523438 C 235.246094 29.046875 244.894531 19.792969 256.417969 17.464844 C 258.324219 17.082031 260.253906 16.890625 262.199219 16.890625 C 272.03125 16.890625 282.269531 21.742188 291.570312 30.9375 C 303.597656 42.824219 312.414062 60.238281 316.402344 79.976562 C 320.386719 99.710938 319.019531 119.183594 312.546875 134.804688 C 306.550781 149.28125 296.902344 158.539062 285.382812 160.863281 C 260.71875 165.855469 233.246094 137.21875 225.394531 98.355469 C 221.410156 78.621094 222.78125 59.144531 229.25 43.523438 Z M 279.777344 178.304688 C 282.761719 178.304688 285.75 178.011719 288.722656 177.410156 C 305.929688 173.9375 319.925781 161.097656 328.144531 141.265625 C 335.882812 122.574219 337.589844 99.621094 332.945312 76.632812 C 328.304688 53.644531 317.820312 33.152344 303.4375 18.933594 C 288.167969 3.839844 270.28125 -2.542969 253.074219 0.921875 C 235.867188 4.394531 221.871094 17.230469 213.652344 37.066406 C 205.914062 55.757812 204.207031 78.707031 208.851562 101.695312 C 217.824219 146.125 248.472656 178.304688 279.777344 178.304688" fill="inherit"/></g><g clip-path="url(#a)" id="change1_5"><path d="M 456.273438 157.484375 C 451.601562 189.304688 430.789062 213.746094 410.90625 210.804688 C 401.730469 209.457031 393.699219 202.492188 388.292969 191.1875 C 382.351562 178.769531 380.390625 162.96875 382.78125 146.695312 C 385.171875 130.425781 391.585938 115.855469 400.84375 105.664062 C 409.273438 96.394531 418.976562 92.039062 428.144531 93.375 C 448.058594 96.296875 460.941406 125.65625 456.273438 157.484375 Z M 430.59375 76.675781 C 415.679688 74.46875 400.679688 80.75 388.351562 94.3125 C 376.863281 106.953125 368.949219 124.6875 366.082031 144.246094 C 363.210938 163.800781 365.691406 183.0625 373.066406 198.476562 C 380.976562 215.007812 393.542969 225.316406 408.457031 227.503906 C 410.433594 227.796875 412.398438 227.933594 414.355469 227.933594 C 442.0625 227.933594 467.175781 199.433594 472.972656 159.933594 C 479.179688 117.640625 460.5625 81.070312 430.59375 76.675781" fill="inherit"/></g></g></svg>