<?xml version="1.0" encoding="UTF-8" standalone="no"?><svg xmlns="http://www.w3.org/2000/svg" xmlns:xlink="http://www.w3.org/1999/xlink" fill="#000000" height="328.5" preserveAspectRatio="xMidYMid meet" version="1" viewBox="0.0 0.0 794.3 328.5" width="794.3" zoomAndPan="magnify"><defs><clipPath id="a"><path d="M 0 6 L 794.308594 6 L 794.308594 328.550781 L 0 328.550781 Z M 0 6"/></clipPath></defs><g><g id="change1_2"><path d="M 370.160156 301.675781 C 361.242188 301.675781 352.484375 298.882812 345.019531 293.496094 C 334.546875 285.933594 328.25 274.289062 327.742188 261.546875 C 327.324219 251.046875 330.707031 241.101562 337.523438 232.785156 L 374.90625 187.183594 C 383.105469 177.179688 395.226562 171.441406 408.164062 171.441406 C 421.097656 171.441406 433.21875 177.179688 441.421875 187.183594 L 478.800781 232.785156 C 485.617188 241.101562 489 251.046875 488.585938 261.546875 C 488.074219 274.289062 481.777344 285.933594 471.304688 293.496094 C 460.5 301.292969 446.976562 303.65625 434.195312 299.976562 L 430.078125 298.792969 C 415.742188 294.664062 400.585938 294.664062 386.246094 298.792969 L 382.128906 299.976562 C 378.175781 301.117188 374.152344 301.675781 370.160156 301.675781 Z M 382.640625 193.523438 L 345.257812 239.125 C 340.015625 245.519531 337.414062 253.136719 337.734375 261.148438 C 338.117188 270.800781 342.90625 279.636719 350.875 285.386719 C 359.171875 291.375 369.558594 293.191406 379.363281 290.367188 L 383.480469 289.183594 C 399.628906 284.53125 416.699219 284.53125 432.847656 289.183594 L 436.964844 290.367188 C 446.769531 293.191406 457.152344 291.378906 465.453125 285.386719 C 473.417969 279.636719 478.207031 270.800781 478.589844 261.148438 C 478.910156 253.132812 476.308594 245.519531 471.066406 239.125 L 433.6875 193.523438 C 427.394531 185.847656 418.089844 181.441406 408.164062 181.441406 C 398.234375 181.441406 388.933594 185.847656 382.640625 193.523438" fill="#ffffff"/></g><g id="change1_3"><path d="M 330.320312 230.082031 C 315.019531 230.082031 300.722656 215.441406 297.398438 195.441406 C 295.695312 185.203125 297.070312 175.023438 301.261719 166.78125 C 305.714844 158.035156 312.78125 152.449219 321.167969 151.054688 C 337.878906 148.289062 354.40625 163.675781 358.011719 185.371094 C 359.714844 195.613281 358.339844 205.789062 354.148438 214.03125 C 349.695312 222.78125 342.628906 228.367188 334.242188 229.757812 C 332.933594 229.976562 331.621094 230.082031 330.320312 230.082031 Z M 325.191406 160.722656 C 324.398438 160.722656 323.601562 160.789062 322.804688 160.921875 C 317.636719 161.78125 313.148438 165.472656 310.175781 171.316406 C 306.945312 177.671875 305.910156 185.65625 307.261719 193.804688 C 309.773438 208.914062 319.769531 220.089844 330.21875 220.089844 C 331.011719 220.089844 331.808594 220.027344 332.605469 219.894531 C 337.773438 219.035156 342.261719 215.34375 345.234375 209.496094 C 348.46875 203.144531 349.5 195.160156 348.148438 187.011719 C 345.636719 171.902344 335.640625 160.722656 325.191406 160.722656" fill="#ffffff"/></g><g id="change1_4"><path d="M 377.375 179.0625 C 362.074219 179.0625 347.773438 164.421875 344.453125 144.425781 C 342.75 134.183594 344.121094 124.007812 348.316406 115.765625 C 352.769531 107.015625 359.839844 101.429688 368.222656 100.039062 C 384.925781 97.261719 401.460938 112.65625 405.066406 134.355469 C 406.769531 144.59375 405.394531 154.769531 401.203125 163.011719 C 396.75 171.761719 389.683594 177.347656 381.296875 178.742188 C 379.988281 178.957031 378.675781 179.0625 377.375 179.0625 Z M 372.246094 109.707031 C 371.453125 109.707031 370.65625 109.769531 369.859375 109.902344 C 364.6875 110.761719 360.203125 114.453125 357.230469 120.300781 C 353.996094 126.652344 352.964844 134.636719 354.316406 142.785156 C 357.019531 159.042969 368.386719 170.753906 379.65625 168.875 C 384.828125 168.015625 389.316406 164.324219 392.289062 158.480469 C 395.519531 152.125 396.554688 144.140625 395.203125 135.992188 C 392.691406 120.882812 382.695312 109.707031 372.246094 109.707031" fill="#ffffff"/></g><g id="change1_5"><path d="M 486.003906 230.082031 C 484.703125 230.082031 483.394531 229.976562 482.082031 229.757812 C 473.699219 228.367188 466.628906 222.78125 462.179688 214.03125 C 457.984375 205.789062 456.613281 195.613281 458.3125 185.371094 C 461.917969 163.675781 478.441406 148.289062 495.15625 151.054688 C 503.542969 152.449219 510.613281 158.035156 515.0625 166.78125 C 519.257812 175.023438 520.628906 185.203125 518.925781 195.441406 C 515.605469 215.4375 501.304688 230.082031 486.003906 230.082031 Z M 491.132812 160.722656 C 480.683594 160.722656 470.6875 171.898438 468.179688 187.011719 C 466.824219 195.15625 467.859375 203.144531 471.089844 209.496094 C 474.066406 215.34375 478.550781 219.035156 483.722656 219.894531 C 494.996094 221.773438 506.359375 210.0625 509.0625 193.804688 C 510.414062 185.65625 509.382812 177.671875 506.148438 171.316406 C 503.175781 165.472656 498.691406 161.78125 493.519531 160.921875 C 492.722656 160.789062 491.925781 160.722656 491.132812 160.722656" fill="#ffffff"/></g><g id="change1_6"><path d="M 438.949219 179.0625 C 437.648438 179.0625 436.339844 178.957031 435.027344 178.742188 C 426.644531 177.347656 419.574219 171.761719 415.121094 163.011719 C 410.929688 154.769531 409.558594 144.59375 411.257812 134.355469 C 412.960938 124.113281 417.550781 114.925781 424.183594 108.484375 C 431.222656 101.644531 439.722656 98.640625 448.105469 100.039062 C 456.488281 101.429688 463.558594 107.015625 468.007812 115.765625 C 472.203125 124.007812 473.574219 134.183594 471.871094 144.425781 C 468.550781 164.421875 454.253906 179.0625 438.949219 179.0625 Z M 444.132812 109.710938 C 439.683594 109.710938 435.152344 111.769531 431.152344 115.65625 C 426.039062 120.621094 422.476562 127.84375 421.125 135.992188 C 419.769531 144.140625 420.804688 152.128906 424.035156 158.480469 C 427.011719 164.324219 431.496094 168.015625 436.667969 168.875 C 447.933594 170.761719 459.308594 159.042969 462.007812 142.785156 C 463.363281 134.636719 462.328125 126.652344 459.097656 120.300781 C 456.121094 114.453125 451.636719 110.761719 446.464844 109.902344 C 445.691406 109.773438 444.914062 109.710938 444.132812 109.710938" fill="#ffffff"/></g><g id="change1_7"><path d="M 397.15625 80.539062 C 311.589844 80.539062 231.113281 76.859375 170.554688 70.179688 C 140.957031 66.914062 117.664062 63.097656 101.332031 58.835938 C 81.101562 53.558594 72.46875 48.007812 72.46875 40.269531 C 72.46875 32.53125 81.101562 26.980469 101.332031 21.703125 C 117.664062 17.445312 140.957031 13.628906 170.554688 10.363281 C 231.113281 3.683594 311.589844 0.00390625 397.15625 0.00390625 C 482.726562 0.00390625 563.199219 3.683594 623.757812 10.363281 C 653.355469 13.628906 676.648438 17.445312 692.980469 21.703125 C 713.210938 26.980469 721.84375 32.53125 721.84375 40.269531 C 721.84375 48.007812 713.210938 53.558594 692.980469 58.835938 C 676.648438 63.097656 653.355469 66.914062 623.757812 70.179688 C 563.199219 76.859375 482.726562 80.539062 397.15625 80.539062 Z M 82.59375 40.269531 C 83.921875 42.09375 94.8125 52.132812 176.621094 60.773438 C 236.222656 67.070312 314.546875 70.539062 397.15625 70.539062 C 479.769531 70.539062 558.089844 67.070312 617.691406 60.773438 C 699.5 52.132812 710.390625 42.09375 711.71875 40.269531 C 710.390625 38.449219 699.5 28.40625 617.695312 19.765625 C 558.089844 13.46875 479.769531 10.003906 397.15625 10.003906 C 314.542969 10.003906 236.222656 13.46875 176.621094 19.765625 C 94.8125 28.40625 83.921875 38.449219 82.59375 40.269531" fill="#ffffff"/></g><g clip-path="url(#a)" id="change1_1"><path d="M 397.15625 328.550781 C 292.230469 328.550781 193.554688 324.039062 119.3125 315.847656 C 83.054688 311.847656 54.539062 307.179688 34.554688 301.964844 C 10.65625 295.730469 0 289.046875 0 280.285156 C 0 278.789062 0.375 277.304688 1.144531 275.753906 L 82.472656 6.414062 L 82.472656 40.078125 C 83.101562 41.210938 91.230469 51.753906 176.621094 60.773438 C 236.222656 67.070312 314.546875 70.539062 397.15625 70.539062 C 479.769531 70.539062 558.089844 67.070312 617.691406 60.773438 C 703.085938 51.753906 711.210938 41.210938 711.84375 40.078125 L 711.84375 6.414062 L 793.164062 275.75 C 793.9375 277.300781 794.3125 278.789062 794.3125 280.285156 C 794.3125 289.046875 783.65625 295.730469 759.757812 301.964844 C 739.773438 307.179688 711.257812 311.847656 675.003906 315.847656 C 600.757812 324.039062 502.085938 328.550781 397.15625 328.550781 Z M 10.023438 280.367188 C 10.445312 281.527344 17.585938 294.730469 122.414062 306.128906 C 196.074219 314.140625 293.644531 318.550781 397.15625 318.550781 C 500.664062 318.550781 598.238281 314.140625 671.898438 306.128906 C 776.527344 294.75 783.839844 281.578125 784.289062 280.367188 C 784.257812 280.292969 784.210938 280.1875 784.128906 280.046875 L 783.878906 279.589844 L 783.730469 279.089844 L 714.746094 50.636719 C 710.058594 53.585938 702.917969 56.246094 692.980469 58.835938 C 676.648438 63.097656 653.355469 66.914062 623.757812 70.179688 C 563.199219 76.859375 482.726562 80.539062 397.15625 80.539062 C 311.589844 80.539062 231.113281 76.859375 170.558594 70.179688 C 140.957031 66.914062 117.664062 63.097656 101.332031 58.835938 C 91.394531 56.246094 84.257812 53.585938 79.566406 50.636719 L 10.433594 279.589844 L 10.183594 280.046875 C 10.105469 280.191406 10.054688 280.296875 10.023438 280.367188 Z M 9.980469 280.484375 L 9.980469 280.484375" fill="#ffffff"/></g><g id="change1_8"><path d="M 39.140625 298.257812 L 29.613281 295.21875 L 66.273438 180.390625 L 75.800781 183.429688 L 39.140625 298.257812" fill="#ffffff"/></g><g id="change1_9"><path d="M 86.757812 149.113281 L 77.230469 146.070312 L 94.789062 91.0625 L 104.316406 94.105469 L 86.757812 149.113281" fill="#ffffff"/></g></g></svg>