<?xml version="1.0" encoding="UTF-8"?><svg xmlns="http://www.w3.org/2000/svg" xmlns:xlink="http://www.w3.org/1999/xlink" height="441.5" preserveAspectRatio="xMidYMid meet" version="1.0" viewBox="-2.4 211.4 868.7 441.5" width="868.7" zoomAndPan="magnify"><g id="change1_1"><path d="M852.47308,372.08539c6.77454-27.63818,4.0611-56.98389-7.84607-84.86429 c-11.97614-28.04199-34.2403-49.95509-62.69104-61.70261c-29.88568-12.3389-61.06586-14.13579-90.17175-5.1949 c-27.00391,8.29591-50.79791,25.69441-67.00006,48.99171c-2.28613,3.28809-6.08838,5.25101-10.17084,5.25101H249.4062 c-4.082,0-7.8842-1.96292-10.17081-5.25153c-16.20169-23.29678-39.99609-40.69579-67-48.9912 c-29.105-8.9399-60.28519-7.1445-90.1719,5.19531c-28.4502,11.74759-50.7139,33.6602-62.6905,61.70219 c-11.9072,27.8804-14.6206,57.2261-7.8461,84.86429c5.6132,22.90231,17.3017,43.45361,34.0151,59.95212 C8.3643,468.7016-2.3721,523.61469,18.4131,574.55798c11.7363,28.76562,34.8545,52.05963,63.4277,63.91022 c32.8765,13.63568,68.1939,14.39062,99.44241,2.12793c29.56889-11.60455,53.5889-33.71191,67.6353-62.25 c2.0629-4.19244,6.44429-6.90045,11.16161-6.90045h343.83981c4.71729,0,9.09869,2.70801,11.16156,6.90045 c14.04645,28.53809,38.06641,50.64545,67.63483,62.25c14.75677,5.79095,30.41498,8.67865,46.30029,8.67767 c17.75391,0,35.79102-3.60931,53.14307-10.8056c28.57324-11.85059,51.69141-35.14551,63.42725-63.91022 c20.78516-50.9433,10.0484-105.85638-27.12891-142.52048C835.17139,415.53851,846.85992,394.98721,852.47308,372.08539z M821.2002,498.83731c5.20209,20.47269,3.38922,42.47659-5.24219,63.63278c-8.53174,20.91119-25.31934,37.83789-46.05762,46.43951 c-25.55078,10.5957-51.65631,11.25092-75.49371,1.89838c-22.12445-8.68359-40.09955-25.23047-50.6142-46.59277 c-7.40527-15.04681-23.05615-24.76953-39.87256-24.76953H260.08011c-16.81641,0-32.46732,9.72272-39.8726,24.76953 c-10.5146,21.3623-28.4902,37.91022-50.6142,46.59277c-23.83891,9.35352-49.94341,8.69922-75.49321-1.89838 c-20.7388-8.60162-37.5259-25.52832-46.0581-46.43951c-8.6314-21.15619-10.4443-43.1601-5.2422-63.63278 c4.8467-19.0723,15.376-35.95511,30.4507-48.82132c5.269-4.49799,8.29099-11.05078,8.29099-17.97699 c0-6.9263-3.022-13.47852-8.2915-17.97659c-15.2939-13.0542-25.8901-30.20361-30.6431-49.5947 c-5.1118-20.85501-2.9697-43.22021,6.1949-64.67822c8.54-19.99609,25.1147-36.28619,45.4746-44.69238 c51.5713-21.29491,96.77051,0.9726,118.687,32.48779c8.26511,11.88571,21.8887,18.98141,36.44281,18.98141h365.18713 c14.55463,0,28.17816-7.0957,36.44275-18.98093c21.91705-31.51419,67.11536-53.78279,118.68701-32.48878 c20.36041,8.40669,36.93512,24.69679,45.4751,44.69289c9.16461,21.45801,11.3067,43.82321,6.19489,64.67822 c-4.75299,19.39059-15.34918,36.5405-30.64355,49.59518c-5.26904,4.49759-8.29102,11.0498-8.29102,17.9761 c0,6.92621,3.02197,13.479,8.29102,17.97699C805.82422,462.8822,816.35352,479.76501,821.2002,498.83731z" fill="#f4f4f4"/></g></svg>